<svg width="118" height="127" viewBox="0 0 118 127" fill="none" xmlns="http://www.w3.org/2000/svg">
<circle cx="56" cy="56" r="56" fill="#27AE60" fill-opacity="0.15"/>
<rect x="31" y="29" width="50" height="60" rx="6" fill="#2ED374"/>
<path d="M70.6259 41.9966H41.3625C41.188 42.0104 41.013 41.982 40.8482 41.9131C40.6835 41.8441 40.5325 41.7361 40.4048 41.5958C40.277 41.4555 40.1752 41.2858 40.1056 41.0973C40.0359 40.9088 40 40.7055 40 40.5C40 40.2945 40.0359 40.0912 40.1056 39.9027C40.1752 39.7142 40.277 39.5445 40.4048 39.4042C40.5325 39.2639 40.6835 39.1559 40.8482 39.0869C41.013 39.018 41.188 38.9896 41.3625 39.0034H70.6375C70.812 38.9896 70.987 39.018 71.1518 39.0869C71.3165 39.1559 71.4675 39.2639 71.5952 39.4042C71.7229 39.5445 71.8248 39.7142 71.8944 39.9027C71.9641 40.0912 72 40.2945 72 40.5C72 40.7055 71.9641 40.9088 71.8944 41.0973C71.8248 41.2858 71.7229 41.4555 71.5952 41.5958C71.4675 41.7361 71.3165 41.8441 71.1518 41.9131C70.987 41.982 70.812 42.0104 70.6375 41.9966H70.6259Z" fill="white"/>
<path d="M70.6259 50.9966H41.3625C41.188 51.0104 41.013 50.982 40.8482 50.9131C40.6835 50.8441 40.5325 50.7361 40.4048 50.5958C40.277 50.4555 40.1752 50.2858 40.1056 50.0973C40.0359 49.9088 40 49.7055 40 49.5C40 49.2945 40.0359 49.0912 40.1056 48.9027C40.1752 48.7142 40.277 48.5445 40.4048 48.4042C40.5325 48.2639 40.6835 48.1559 40.8482 48.0869C41.013 48.018 41.188 47.9896 41.3625 48.0034H70.6375C70.812 47.9896 70.987 48.018 71.1518 48.0869C71.3165 48.1559 71.4675 48.2639 71.5952 48.4042C71.7229 48.5445 71.8248 48.7142 71.8944 48.9027C71.9641 49.0912 72 49.2945 72 49.5C72 49.7055 71.9641 49.9088 71.8944 50.0973C71.8248 50.2858 71.7229 50.4555 71.5952 50.5958C71.4675 50.7361 71.3165 50.8441 71.1518 50.9131C70.987 50.982 70.812 51.0104 70.6375 50.9966H70.6259Z" fill="white"/>
<path d="M70.6259 59.9966H41.3625C41.188 60.0104 41.013 59.982 40.8482 59.9131C40.6835 59.8441 40.5325 59.7361 40.4048 59.5958C40.277 59.4555 40.1752 59.2858 40.1056 59.0973C40.0359 58.9088 40 58.7055 40 58.5C40 58.2945 40.0359 58.0912 40.1056 57.9027C40.1752 57.7142 40.277 57.5445 40.4048 57.4042C40.5325 57.2639 40.6835 57.1559 40.8482 57.0869C41.013 57.018 41.188 56.9896 41.3625 57.0034H70.6375C70.812 56.9896 70.987 57.018 71.1518 57.0869C71.3165 57.1559 71.4675 57.2639 71.5952 57.4042C71.7229 57.5445 71.8248 57.7142 71.8944 57.9027C71.9641 58.0912 72 58.2945 72 58.5C72 58.7055 71.9641 58.9088 71.8944 59.0973C71.8248 59.2858 71.7229 59.4555 71.5952 59.5958C71.4675 59.7361 71.3165 59.8441 71.1518 59.9131C70.987 59.982 70.812 60.0104 70.6375 59.9966H70.6259Z" fill="white"/>
<path d="M70.6259 68.9966H41.3625C41.188 69.0104 41.013 68.982 40.8482 68.9131C40.6835 68.8441 40.5325 68.7361 40.4048 68.5958C40.277 68.4555 40.1752 68.2858 40.1056 68.0973C40.0359 67.9088 40 67.7055 40 67.5C40 67.2945 40.0359 67.0912 40.1056 66.9027C40.1752 66.7142 40.277 66.5445 40.4048 66.4042C40.5325 66.2639 40.6835 66.1559 40.8482 66.0869C41.013 66.018 41.188 65.9896 41.3625 66.0034H70.6375C70.812 65.9896 70.987 66.018 71.1518 66.0869C71.3165 66.1559 71.4675 66.2639 71.5952 66.4042C71.7229 66.5445 71.8248 66.7142 71.8944 66.9027C71.9641 67.0912 72 67.2945 72 67.5C72 67.7055 71.9641 67.9088 71.8944 68.0973C71.8248 68.2858 71.7229 68.4555 71.5952 68.5958C71.4675 68.7361 71.3165 68.8441 71.1518 68.9131C70.987 68.982 70.812 69.0104 70.6375 68.9966H70.6259Z" fill="white"/>
<path d="M70.6259 77.9966H41.3625C41.188 78.0104 41.013 77.982 40.8482 77.9131C40.6835 77.8441 40.5325 77.7361 40.4048 77.5958C40.277 77.4555 40.1752 77.2858 40.1056 77.0973C40.0359 76.9088 40 76.7055 40 76.5C40 76.2945 40.0359 76.0912 40.1056 75.9027C40.1752 75.7142 40.277 75.5445 40.4048 75.4042C40.5325 75.2639 40.6835 75.1559 40.8482 75.0869C41.013 75.018 41.188 74.9896 41.3625 75.0034H70.6375C70.812 74.9896 70.987 75.018 71.1518 75.0869C71.3165 75.1559 71.4675 75.2639 71.5952 75.4042C71.7229 75.5445 71.8248 75.7142 71.8944 75.9027C71.9641 76.0912 72 76.2945 72 76.5C72 76.7055 71.9641 76.9088 71.8944 77.0973C71.8248 77.2858 71.7229 77.4555 71.5952 77.5958C71.4675 77.7361 71.3165 77.8441 71.1518 77.9131C70.987 77.982 70.812 78.0104 70.6375 77.9966H70.6259Z" fill="white"/>
<rect x="42" y="26" width="28" height="8" rx="2" fill="#27AE60"/>
<circle cx="56" cy="26" r="4" fill="#27AE60"/>
<g filter="url(#filter0_d_244_12328)">
<circle cx="74" cy="77" r="12" fill="white"/>
</g>
<path d="M74.0017 71.8147V82.1851" stroke="#00B5B5" stroke-width="2" stroke-linecap="round" stroke-linejoin="round"/>
<path d="M68.816 76.9998H79.1863" stroke="#00B5B5" stroke-width="2" stroke-linecap="round" stroke-linejoin="round"/>
<defs>
<filter id="filter0_d_244_12328" x="30" y="39" width="88" height="88" filterUnits="userSpaceOnUse" color-interpolation-filters="sRGB">
<feFlood flood-opacity="0" result="BackgroundImageFix"/>
<feColorMatrix in="SourceAlpha" type="matrix" values="0 0 0 0 0 0 0 0 0 0 0 0 0 0 0 0 0 0 127 0" result="hardAlpha"/>
<feOffset dy="6"/>
<feGaussianBlur stdDeviation="16"/>
<feComposite in2="hardAlpha" operator="out"/>
<feColorMatrix type="matrix" values="0 0 0 0 0.345833 0 0 0 0 0.345833 0 0 0 0 0.345833 0 0 0 0.07 0"/>
<feBlend mode="normal" in2="BackgroundImageFix" result="effect1_dropShadow_244_12328"/>
<feBlend mode="normal" in="SourceGraphic" in2="effect1_dropShadow_244_12328" result="shape"/>
</filter>
</defs>
</svg>
